<svg width="16" height="17" viewBox="0 0 16 17" fill="none" xmlns="http://www.w3.org/2000/svg">
<g id="Icons / Search">
<path id="&#240;&#159;&#142;&#168; Color" d="M6.66699 2.16669C9.42842 2.16669 11.667 4.40526 11.667 7.16669C11.667 8.30679 11.2854 9.35776 10.643 10.1989L13.8051 13.3619C14.0654 13.6223 14.0654 14.0444 13.8051 14.3048C13.5647 14.5451 13.1866 14.5636 12.9251 14.3602L12.8623 14.3048L9.69917 11.1427C8.85807 11.7851 7.80709 12.1667 6.66699 12.1667C3.90557 12.1667 1.66699 9.92811 1.66699 7.16669C1.66699 4.40526 3.90557 2.16669 6.66699 2.16669ZM6.66699 3.50002C4.64195 3.50002 3.00033 5.14164 3.00033 7.16669C3.00033 9.19173 4.64195 10.8334 6.66699 10.8334C8.69204 10.8334 10.3337 9.19173 10.3337 7.16669C10.3337 5.14164 8.69204 3.50002 6.66699 3.50002Z" fill="#989DB5"/>
</g>
</svg>
